<?xml version="1.0" encoding="UTF-8" standalone="no"?>
<!-- Created with Inkscape (http://www.inkscape.org/) -->

<svg
   xmlns:dc="http://purl.org/dc/elements/1.1/"
   xmlns:cc="http://creativecommons.org/ns#"
   xmlns:rdf="http://www.w3.org/1999/02/22-rdf-syntax-ns#"
   xmlns:svg="http://www.w3.org/2000/svg"
   xmlns="http://www.w3.org/2000/svg"
   xmlns:inkscape="http://www.inkscape.org/namespaces/inkscape"
   version="1.1"
   width="1143.6462"
   height="406.12115"
   id="svg2"
   xml:space="preserve"><metadata
     id="metadata8"><rdf:RDF><cc:Work
         rdf:about=""><dc:format>image/svg+xml</dc:format><dc:type
           rdf:resource="http://purl.org/dc/dcmitype/StillImage" /></cc:Work></rdf:RDF></metadata><defs
     id="defs6" /><g
     transform="matrix(1.25,0,0,-1.25,0,406.12114)"
     id="g10"><g
       id="g12"><path
         d="m 371.715,220.327 -4.86,44.57 c 0,0 49.715,16.57 87.43,15.43 90,1.425 94,-59.715 93.145,-83.43 l -0.285,-123.43 21.425,-2.285 -34.57,-38 -35.145,0 2,45.43 c 0,0 -22.855,-51.145 -80.285,-50.571 -68,-1.144 -69.14,61.141 -69.14,61.141 5.425,96 143.425,88.57 143.425,88.57 l -0.285,24 c -1.715,42.289 -50.855,37.715 -50.855,37.715 -39.715,0 -72,-19.14 -72,-19.14 z"
         inkscape:connector-curvature="0"
         id="path14"
         style="fill:#939598;fill-opacity:1;fill-rule:nonzero;stroke:none" /><path
         d="m 383.43,295.467 c 0,0 33.14,10.574 60,9.715 120.285,-9.43 148.172,-107.141 148.457,-151.43 0,0 -3.032,-143.14 -154.742,-149.711 -68.29,-0.574 -112,48.571 -112,48.571 0,0 39.425,-54.285 117.14,-52.571 126.285,0.571 159.485,119.04 156.86,153.426 4.804,33.035 -32.29,148.574 -153.715,153.43 -41.141,0.687 -62,-11.43 -62,-11.43 z"
         inkscape:connector-curvature="0"
         id="path16"
         style="fill:#939598;fill-opacity:1;fill-rule:nonzero;stroke:none" /><path
         d="m 494.855,143.182 c 0,0 3.715,-69.715 -58.855,-74 -33.715,-1.43 -34.285,30.285 -34.285,30.285 0,0 -3.715,44.86 93.14,43.715 z"
         inkscape:connector-curvature="0"
         id="path18"
         style="fill:#ffffff;fill-opacity:1;fill-rule:nonzero;stroke:none" /><path
         d="m 655,315.897 43.57,9 -14.14,-72.856 51.57,0.141 -6.715,-33.57 -51.43,0.14 -19.57,-105 c -6,-33.425 16,-29.14 16,-29.14 19.715,0 28.57,2.855 28.57,2.855 L 700,52.612 C 685.715,48.752 658.285,48.041 658.285,48.041 603.43,47.327 614,99.897 614,99.897 l 22.57,119 -38.285,0 7,33.285 38.145,0 11.57,63.715 z"
         inkscape:connector-curvature="0"
         id="path20"
         style="fill:#0a74af;fill-opacity:1;fill-rule:nonzero;stroke:none" /><path
         d="m 787.43,137.752 -2.086,-20.777 c 0.203,-7.07 -2.621,-36.637 36.371,-35.223 0,0 40.937,1.426 61.14,13.145 l -0.132,-34.856 c 0,0 -25.196,-10.519 -71.461,-12.539 -74.348,-2.222 -68.977,62.25 -68.977,62.25 0,0 -3.492,140.192 110.86,146.454 66.667,0 61.679,-49.106 61.679,-49.106 0,0 8.168,-65.508 -127.394,-69.348 z"
         inkscape:connector-curvature="0"
         id="path22"
         style="fill:#0a74af;fill-opacity:1;fill-rule:nonzero;stroke:none" /><path
         d="m 792.57,166.897 c 0,0 10.914,55.73 56.575,57.144 25.453,-1.214 23.46,-20.773 23.46,-20.773 0.809,-38.387 -80.035,-36.371 -80.035,-36.371 z"
         inkscape:connector-curvature="0"
         id="path24"
         style="fill:#ffffff;fill-opacity:1;fill-rule:nonzero;stroke:none" /><path
         d="m 0.172,248.897 c 0,0 35.14,4 76,3.43 l -2.172,-40 c 0,0 16.98,42.644 66,43.714 49.02,1.067 57.312,-43.601 57.312,-43.601 0,0 19.977,43.355 68.403,43.601 48.426,0.243 57.715,-40.574 57.715,-40.574 l 1.14,-163.426 -43.425,0 0,140.571 c 0,0 -1.43,27.715 -27.43,27.429 -48.57,-0.859 -52.57,-65.144 -52.57,-65.144 l 0.285,-102.856 -43.715,0 0,136 c 0,0 1.43,34.286 -28.57,32 C 86,218.612 78.285,160.897 78.285,160.897 L 78,51.924 l -43.715,0.117 0.86,166.571 c 0,0 -24.575,4 -35.145,3.429 l 0.172,26.856 z"
         inkscape:connector-curvature="0"
         id="path26"
         style="fill:#0a74af;fill-opacity:1;fill-rule:nonzero;stroke:none" /><path
         d="m 318.285,253.752 c 0,0 8.285,-8.855 7.43,-57.14 l -1.145,-144 c 0,0 -41.347,45.008 -41.715,100.914 -0.363,55.906 35.43,100.226 35.43,100.226 z"
         inkscape:connector-curvature="0"
         id="path28"
         style="fill:#939598;fill-opacity:1;fill-rule:nonzero;stroke:none" /></g></g></svg>