<?xml version="1.0" encoding="utf-8" standalone="no"?>
<!DOCTYPE svg PUBLIC "-//W3C//DTD SVG 1.1//EN"
  "http://www.w3.org/Graphics/SVG/1.1/DTD/svg11.dtd">
<!-- Created with matplotlib (http://matplotlib.org/) -->
<svg height="345pt" version="1.1" viewBox="0 0 446 345" width="446pt" xmlns="http://www.w3.org/2000/svg" xmlns:xlink="http://www.w3.org/1999/xlink">
 <defs>
  <style type="text/css">
*{stroke-linecap:butt;stroke-linejoin:round;}
  </style>
 </defs>
 <g id="figure_1">
  <g id="patch_1">
   <path d="
M0 345.6
L446.4 345.6
L446.4 0
L0 0
z
" style="fill:none;"/>
  </g>
  <g id="axes_1">
   <g id="patch_2">
    <path clip-path="url(#p09c2192f7b)" d="
M361.44 172.8
C361.44 169.978 361.354 167.156 361.181 164.339
C361.008 161.522 360.749 158.711 360.404 155.91
L223.2 172.8
L361.44 172.8
z
" style="fill:#a50026;stroke:#000000;"/>
   </g>
   <g id="patch_3">
    <path clip-path="url(#p09c2192f7b)" d="
M360.404 155.91
C356.89 127.358 344.548 100.602 325.11 79.3938
C305.671 58.1859 280.089 43.5656 251.95 37.5826
L223.2 172.8
L360.404 155.91
z
" style="fill:#e34a33;stroke:#000000;"/>
   </g>
   <g id="patch_4">
    <path clip-path="url(#p09c2192f7b)" d="
M251.95 37.5826
C233.318 33.6211 214.067 33.553 195.407 37.3826
C176.748 41.2123 159.08 48.8576 143.514 59.8377
L223.2 172.8
L251.95 37.5826
z
" style="fill:#fca55d;stroke:#000000;"/>
   </g>
   <g id="patch_5">
    <path clip-path="url(#p09c2192f7b)" d="
M143.514 59.8377
C141.923 60.9604 140.355 62.1167 138.812 63.3056
C137.27 64.4946 135.752 65.7161 134.261 66.9692
L223.2 172.8
L143.514 59.8377
z
" style="fill:#fee99d;stroke:#000000;"/>
   </g>
   <g id="patch_6">
    <path clip-path="url(#p09c2192f7b)" d="
M134.261 66.9692
C110.128 87.2499 93.6439 115.187 87.5595 146.117
C81.4751 177.048 86.1494 209.147 100.802 237.058
C115.455 264.968 139.222 287.044 168.136 299.6
C197.051 312.156 229.407 314.453 259.805 306.106
L223.2 172.8
L134.261 66.9692
z
" style="fill:#e9f6e8;stroke:#000000;"/>
   </g>
   <g id="patch_7">
    <path clip-path="url(#p09c2192f7b)" d="
M259.805 306.106
C263.786 305.012 267.716 303.742 271.583 302.297
C275.449 300.852 279.25 299.235 282.972 297.45
L223.2 172.8
L259.805 306.106
z
" style="fill:#a3d3e6;stroke:#000000;"/>
   </g>
   <g id="patch_8">
    <path clip-path="url(#p09c2192f7b)" d="
M282.972 297.45
C299.808 289.377 314.835 277.976 327.145 263.936
C339.454 249.896 348.793 233.507 354.595 215.76
L223.2 172.8
L282.972 297.45
z
" style="fill:#598dc0;stroke:#000000;"/>
   </g>
   <g id="patch_9">
    <path clip-path="url(#p09c2192f7b)" d="
M354.595 215.76
C356.859 208.837 358.572 201.745 359.718 194.551
C360.864 187.357 361.44 180.084 361.44 172.8
L223.2 172.8
L354.595 215.76
z
" style="fill:#313695;stroke:#000000;"/>
   </g>
   <g id="matplotlib.axis_1"/>
   <g id="matplotlib.axis_2"/>
   <g id="text_1">
    <!-- FBaaijens -->
    <defs>
     <path d="
M45.5781 23
C45.6719 37.8125 37.3438 48.2812 25.3906 48.2812
C12.8438 48.2812 3.4375 37.25 3.4375 22.3438
C3.4375 8.4375 12.3438 -1 25.5781 -1
C34.8906 -1 41.5469 3.6875 45.5781 13.1875
L42.1406 15.0938
C38.125 7.39062 34 4.39062 27.4375 4.39062
C22.4375 4.39062 18.8125 6.59375 16.2656 11
C14.5 14 13.7188 17.5 13.8125 23
z

M13.9219 27.2969
C13.9219 30.3438 14.3125 32.5 15.2812 35.25
C17.3438 41.1562 20.4844 44 25.1875 44
C31.1719 44 35.0781 38.7812 35.0781 30.9219
C35.0781 28.0781 34.2031 27.2969 31.0625 27.2969
z
" id="Century_Schoolbook_L_Roman-101"/>
     <path d="
M61.1562 72
L2.84375 72
L2.84375 67.3125
L4.60938 67.3125
C12.5469 67.3125 13.4219 66.8125 13.4219 62.6094
L13.4219 59.7188
L13.4219 12.2812
L13.4219 9.375
C13.4219 5.1875 12.5469 4.6875 4.60938 4.6875
L2.84375 4.6875
L2.84375 0
L36.4531 0
L36.4531 4.6875
L33.2188 4.6875
C25.2812 4.6875 24.4062 5.1875 24.4062 9.39062
L24.4062 12.2969
L24.4062 35
L26.3594 35
C32.4375 35 34.7969 34.375 36.8438 32.2344
C39.2969 29.5781 40.2812 26.2969 40.4688 20.2656
L45.0781 20.2656
L45.0781 53
L40.4688 53
C39.9844 43.5156 36.0625 39.6875 26.75 39.6875
L24.4062 39.6875
L24.4062 62.3281
C24.4062 66.6094 25.2812 67.3125 30.5781 67.3125
L35.0781 67.3125
C51.25 67.3125 55.4688 63.4531 58.2188 46.4531
L62.5312 46.4531
z
" id="Century_Schoolbook_L_Roman-70"/>
     <path d="
M38.2188 48
L34.7969 48
L31.9531 44.4062
C28.4219 47.2031 24.8906 48.3906 20 48.3906
C11.375 48.3906 5.6875 42.6562 5.6875 34.0469
C5.6875 30.1875 6.95312 26.9219 9.10938 24.9531
C11.375 22.8594 13.625 21.8906 19.5 20.5312
L24.7031 19.3594
C32.4375 17.4375 35.1875 15.4219 35.1875 11.3906
C35.1875 6.64062 31.1719 3.29688 25.3906 3.29688
C17.1562 3.29688 11.2656 8.76562 8.92188 18.875
L5 18.875
L5 0
L8.42188 0
L11.8594 3.90625
C15.875 0.75 20.3906 -1 25.2812 -1
C34.8906 -1 41.2656 5.125 41.2656 14.4531
C41.2656 18.875 39.8906 22.2812 37.1406 24.5156
C34.7969 26.5625 32.8281 27.3438 26.8594 28.6094
L21.9531 29.6719
C16.5625 30.8438 16.5625 30.8438 14.7969 31.8281
C12.6406 32.8281 11.375 34.9219 11.375 37.125
C11.375 41.1094 15.0938 44 20.4844 44
C24.2031 44 27.25 42.7031 29.9844 40.0156
C32.1406 37.8125 33.2188 35.8281 34.7969 31.2344
L38.2188 31.2344
z
" id="Century_Schoolbook_L_Roman-115"/>
     <path d="
M20.1875 46
L1.76562 46
L1.76562 41.2188
L6.76562 41.2188
C10.3906 41.2188 10.9844 40.5156 10.9844 36.2031
L10.9844 12.2969
L10.9844 8.29688
C10.9844 4.29688 9.90625 3.59375 3.625 3.59375
L2.9375 3.59375
L2.9375 0
L28.3281 0
L28.3281 3.59375
L27.6406 3.59375
C21.2656 3.59375 20.1875 4.29688 20.1875 8.29688
L20.1875 12.2969
z

M15.5781 71.5781
C12.4531 71.5781 9.90625 68.9844 9.90625 65.7969
C9.90625 62.7031 12.4531 60 15.4844 60
C18.7188 60 21.2656 62.5938 21.2656 65.7969
C21.2656 68.9844 18.7188 71.5781 15.5781 71.5781" id="Century_Schoolbook_L_Roman-105"/>
     <path d="
M19.5938 46
L2.64062 46
L2.64062 41.2188
L6.17188 41.2188
C9.79688 41.2188 10.3906 40.5156 10.3906 36.2031
L10.3906 12.2969
L10.3906 8.29688
C10.3906 4.29688 9.3125 3.59375 3.03125 3.59375
L2.64062 3.59375
L2.64062 0
L27.4375 0
L27.4375 3.59375
L27.0469 3.59375
C20.6719 3.59375 19.5938 4.29688 19.5938 8.29688
L19.5938 12.3125
L19.5938 22.7031
C19.5938 27.6094 20.2812 32.1094 21.3594 34.4219
C23.4219 38.9219 27.8281 41.9219 32.0469 41.9219
C34.5938 41.9219 37.5312 40.4688 39 38.5156
C40.4688 36.4219 41.1562 33.3125 41.1562 28.5
L41.1562 12.2969
L41.1562 8.29688
C41.1562 4.29688 40.0781 3.59375 33.7188 3.59375
L33.3281 3.59375
L33.3281 0
L58.1094 0
L58.1094 3.59375
L57.7188 3.59375
C51.4531 3.59375 50.375 4.29688 50.375 8.29688
L50.375 12.2969
L50.375 28.0156
C50.375 35.2188 50.0781 37.0156 48.3125 40.4219
C45.8594 45.1875 40.8594 48 35.0781 48
C28.8125 48 23.9062 45.0781 19.5938 38.5156
z
" id="Century_Schoolbook_L_Roman-110"/>
     <path d="
M20.2812 46
L1.17188 46
L1.17188 41.2188
L6.85938 41.2188
C10.4844 41.2188 11.0781 40.5156 11.0781 36.2188
L11.0781 2.4375
C11.0781 -5.625 10.5781 -9.42188 9.21875 -12.3125
C8.23438 -14.3125 5.875 -15.8125 3.82812 -15.8125
C2.45312 -15.8125 1.375 -15.2188 1.375 -14.5156
C1.375 -14.1094 1.46875 -13.9219 1.85938 -12.9219
C2.35938 -11.8125 2.54688 -11.2031 2.54688 -10.5
C2.54688 -8.03125 0.203125 -5.82812 -2.54688 -5.82812
C-5.6875 -5.82812 -8.03125 -8.42188 -8.03125 -11.8281
C-8.03125 -16.7031 -3.625 -20 2.9375 -20
C8.42188 -20 13.4219 -17.5469 16.2656 -13.5781
C19.3125 -9.23438 20.2812 -4.1875 20.2812 6.96875
z

M15.6875 71.5781
C12.5469 71.5781 10 68.9844 10 65.7969
C10 62.7031 12.5469 60 15.5781 60
C18.8125 60 21.3594 62.5938 21.3594 65.7969
C21.3594 68.9844 18.8125 71.5781 15.6875 71.5781" id="Century_Schoolbook_L_Roman-106"/>
     <path d="
M44.2969 32.4219
C44.2969 38.7031 43.2188 41.9062 40.375 44.2969
C37.1406 46.8906 32.3438 48.2812 26.0625 48.2812
C15.0938 48.2812 6.95312 43 6.95312 35.8125
C6.95312 32.0156 9.21875 29.625 12.6406 29.625
C15.6875 29.625 17.9375 31.7188 17.9375 34.7188
C17.9375 36.0156 17.4375 37.4062 16.4688 38.8125
C15.875 39.5 15.7812 39.7969 15.7812 40.1094
C15.7812 42.2031 19.7969 44 24.5 44
C27.5312 44 30.9688 43 32.5312 41.5
C34.4062 39.9062 35.0781 37.5156 35.0781 33.0312
L35.0781 29.1406
C24.7969 27.375 21.6562 26.5938 16.8594 24.7344
C8.42188 21.5938 4.3125 16.9219 4.3125 10.6562
C4.3125 3.57812 9.90625 -1 18.5156 -1
C25.2812 -1 31.3594 1.90625 35.5781 7.09375
C37.1406 1.90625 39.5938 0 44.2031 0
C48.6094 0 53.2188 2.90625 53.2188 5.8125
C53.2188 6.5 52.7188 7 52.2344 7
C51.8438 7 51.4531 6.90625 50.7656 6.59375
C49.2031 6 48.8125 5.89062 48.0156 5.89062
C45.2812 5.89062 44.2969 7.78125 44.2969 12.6875
z

M35.0781 20.375
C35.0781 14.4062 34.7969 13.0312 33.125 10.4531
C30.6719 6.76562 26.1719 4.29688 21.9531 4.29688
C17.5469 4.29688 14.2188 7.57812 14.2188 12.0469
C14.2188 16.2188 16.2656 19.2031 20.5781 21.2969
C23.625 22.6562 27.4375 23.6406 35.0781 24.9219
z
" id="Century_Schoolbook_L_Roman-97"/>
     <path d="
M2.9375 72
L2.9375 67.3125
L4.70312 67.3125
C12.6406 67.3125 13.5312 66.8125 13.5312 62.6094
L13.5312 59.7188
L13.5312 12.2812
L13.5312 9.375
C13.5312 5.1875 12.6406 4.6875 4.70312 4.6875
L2.9375 4.6875
L2.9375 0
L38.5156 0
C55.4688 0 65.6562 7.40625 65.6562 19.5938
C65.6562 29.4844 59.3906 35.2969 46.0625 37.6875
C50.7656 38.6875 52.9219 39.5938 55.375 41.4688
C59.4844 44.5625 61.9375 49.4219 61.9375 54.5
C61.9375 60.8438 58.0156 67.1094 52.3281 69.6094
C48.8125 71.2031 43.9062 72 38.125 72
z

M24.5 39.6875
L24.5 62.3281
C24.5 66.2031 25.875 67.3125 30.9688 67.3125
L34.8906 67.3125
C39.3906 67.3125 43.125 66.6094 45.1719 65.2188
C48.7031 63.0469 50.5625 58.7656 50.5625 53.2188
C50.5625 43.4688 45.7656 39.6875 33.2188 39.6875
z

M24.5 35
L33.125 35
C39.3906 35 43.6094 34.3906 46.5469 33.0938
C51.1562 30.9062 53.6094 26.5 53.6094 19.8906
C53.6094 13.6094 51.4531 8.89062 47.625 6.98438
C44.5938 5.39062 40.4688 4.6875 34.2969 4.6875
L30.1875 4.6875
C25.1875 4.6875 24.5 5.48438 24.5 11
z
" id="Century_Schoolbook_L_Roman-66"/>
    </defs>
    <g transform="translate(374.978934144 166.792876447)scale(0.12 -0.12)">
     <use transform="scale(0.996264009963)" xlink:href="#Century_Schoolbook_L_Roman-70"/>
     <use transform="translate(66.4500311333 0.0)scale(0.996264009963)" xlink:href="#Century_Schoolbook_L_Roman-66"/>
     <use transform="translate(138.38001598 0.0)scale(0.996264009963)" xlink:href="#Century_Schoolbook_L_Roman-97"/>
     <use transform="translate(193.771692943 0.0)scale(0.996264009963)" xlink:href="#Century_Schoolbook_L_Roman-97"/>
     <use transform="translate(249.163369907 0.0)scale(0.996264009963)" xlink:href="#Century_Schoolbook_L_Roman-105"/>
     <use transform="translate(280.544682903 0.0)scale(0.996264009963)" xlink:href="#Century_Schoolbook_L_Roman-106"/>
     <use transform="translate(310.033662827 0.0)scale(0.996264009963)" xlink:href="#Century_Schoolbook_L_Roman-101"/>
     <use transform="translate(359.846863325 0.0)scale(0.996264009963)" xlink:href="#Century_Schoolbook_L_Roman-110"/>
     <use transform="translate(420.718494002 0.0)scale(0.996264009963)" xlink:href="#Century_Schoolbook_L_Roman-115"/>
    </g>
   </g>
   <g id="text_2">
    <!-- 1.9% -->
    <defs>
     <path d="
M31.5625 70.2656
C28.2188 66.1875 19.2031 63 10.1875 63
L10.1875 58.5938
L18.8125 58.5938
C24.5 58.5938 24.8906 58.2031 24.8906 52.3125
L24.8906 12.2812
L24.8906 9.375
C24.8906 5.1875 24.0156 4.6875 16.1719 4.6875
L9.79688 4.6875
L9.79688 0
L48.6094 0
L48.6094 4.6875
L43.2188 4.6875
C38.0312 4.6875 35.875 5.09375 35.0781 6.07812
C34.4062 6.78125 34.4062 6.78125 34.4062 12.2812
L34.4062 53.5312
C34.4062 58.4219 34.5938 63.2031 35.0781 70.2656
z
" id="Century_Schoolbook_L_Roman-49"/>
     <path d="
M13.4219 11.4688
C10 11.4688 7.25 8.67188 7.25 5.28125
C7.25 1.78125 10 -1 13.3281 -1
C16.7656 -1 19.5 1.78125 19.5 5.28125
C19.5 8.67188 16.7656 11.4688 13.4219 11.4688" id="Century_Schoolbook_L_Roman-46"/>
     <path d="
M39.5938 35.125
C38.3125 23.0469 37.8281 20.0469 36.0625 14.9688
C33.5156 7.59375 28.125 3.29688 21.5625 3.29688
C18.3281 3.29688 16.0781 4.29688 16.0781 5.79688
C16.0781 6.1875 16.2656 6.6875 16.6562 7.48438
C17.8438 9.875 18.0312 10.4844 18.0312 11.875
C18.0312 15.1719 15.4844 17.7656 12.25 17.7656
C8.53125 17.7656 5.59375 14.5781 5.59375 10.5781
C5.59375 4 12.4531 -1 21.4688 -1
C30.375 -1 38.0312 3.10938 42.8281 10.5156
C47.625 17.9219 50.2812 27.6406 50.2812 37.9531
C50.2812 58.0781 40.8594 71 26.2656 71
C13.7188 71 3.82812 60.3594 3.82812 46.7969
C3.82812 34.8438 12.0625 26.0156 23.2344 26.0156
C30.1875 26.0156 34.2969 28.3281 39.5938 35.125
M26.6562 66.7031
C33.9062 66.7031 38.7188 59.25 38.7188 47.9844
C38.7188 43.8594 37.9219 40.1406 36.4531 37.8281
C34.2031 34.2188 30.375 32 26.1719 32
C18.7188 32 14.5 37.9375 14.5 48.5938
C14.5 53.4375 15.5781 58.1562 17.4375 61.1719
C19.7031 65.0938 22.3438 66.7031 26.6562 66.7031" id="Century_Schoolbook_L_Roman-57"/>
    </defs>
    <g transform="translate(297.679808154 171.023208822)scale(0.12 -0.12)">
     <use transform="scale(0.996264009963)" xlink:href="#Century_Schoolbook_L_Roman-49"/>
     <use transform="translate(55.3916769633 0.0)scale(0.996264009963)" xlink:href="#Century_Schoolbook_L_Roman-46"/>
     <use transform="translate(83.0868465666 0.0)scale(0.996264009963)" xlink:href="#Century_Schoolbook_L_Roman-57"/>
    </g>
   </g>
   <g id="text_3">
    <!-- PAnderson -->
    <defs>
     <path d="
M37.0469 73.7031
L32.9219 73.7031
L10.3906 15.4062
C8.42188 10.1562 8.03125 9.4375 6.5625 7.82812
C5 5.90625 2.25 4.6875 -0.390625 4.6875
L-0.78125 4.6875
L-0.78125 0
L25.1875 0
L25.1875 4.6875
L23.2344 4.6875
C17.9375 4.6875 15.2812 6.625 15.2812 10.4531
C15.2812 11.6719 15.5781 13.0781 16.1719 14.7031
L19.4062 23.6094
L45.375 23.6094
L50.6719 10.0625
C51.25 8.53125 51.4531 7.82812 51.4531 7.3125
C51.4531 5.70312 49 4.6875 45.375 4.6875
L41.2656 4.6875
L41.2656 0
L71.6406 0
L71.6406 4.6875
L70.2656 4.6875
C65.3594 4.6875 64.2812 5.48438 62.0312 11.0938
z

M32.25 57.3438
L43.3125 29
L21.3594 29
z
" id="Century_Schoolbook_L_Roman-65"/>
     <path d="
M37.2344 0
L54.2969 0
L54.2969 4.70312
L52.5312 4.70312
C47.2344 4.70312 46.4531 5.70312 46.4531 11.9844
L46.4531 73.7812
L27.25 73.7812
L27.25 69
L33.0312 69
C36.5625 69 37.2344 68.2812 37.2344 63.9219
L37.2344 41
C33.6094 46.0938 29.4062 48.3906 23.7188 48.3906
C12.6406 48.3906 4.21875 37.5469 4.21875 23.2031
C4.21875 9.0625 12.3438 -1 23.7188 -1
C29.8906 -1 34.1094 1.64062 37.2344 7.59375
z

M25.6719 43
C29.6875 43 33.5156 40.0156 35.2812 35.4219
C36.4531 32.4219 37.1406 28.25 37.1406 23.4844
C37.1406 11.9531 32.6406 4.39062 25.5781 4.39062
C18.7188 4.39062 14.5 10.9688 14.5 22.0156
C14.5 27.8906 15.0938 32.3594 16.3594 35.7344
C18.0312 40.125 21.6562 43 25.6719 43" id="Century_Schoolbook_L_Roman-100"/>
     <path d="
M19.4062 46
L2.0625 46
L2.0625 41.2188
L6.07812 41.2188
C9.70312 41.2188 10.2969 40.5156 10.2969 36.2031
L10.2969 12.2969
L10.2969 8.29688
C10.2969 4.29688 9.21875 3.59375 2.84375 3.59375
L2.45312 3.59375
L2.45312 0
L28.6094 0
L28.6094 3.59375
L26.75 3.59375
C20.4844 3.59375 19.4062 4.29688 19.4062 8.28125
L19.4062 12.2812
L19.4062 13.2812
C19.4062 20.7656 20.7812 28.3438 23.2344 34.0469
C25.5781 39.7031 28.9062 42.8125 33.0312 43.3125
C31.6562 41.7188 31.2656 40.7031 31.2656 38.7812
C31.2656 35.5625 33.5156 33.2344 36.6562 33.2344
C40.1875 33.2344 42.625 35.9375 42.625 40.0156
C42.625 44.8125 39.2969 48 34.1094 48
C27.9375 48 22.5469 43.0156 19.4062 34.1406
z
" id="Century_Schoolbook_L_Roman-114"/>
     <path d="
M24.7031 48.2812
C12.7344 48.2812 3.32812 37.4531 3.32812 23.5469
C3.32812 9.9375 12.7344 -1 24.5 -1
C36.2656 -1 45.6719 9.9375 45.6719 23.6406
C45.6719 37.25 36.2656 48.2812 24.7031 48.2812
M24.7031 44
C31.5625 44 35.375 36.7344 35.375 23.6406
C35.375 10.4531 31.5625 3.29688 24.5 3.29688
C17.4375 3.29688 13.625 10.4531 13.625 23.5469
C13.625 37.0469 17.3438 44 24.7031 44" id="Century_Schoolbook_L_Roman-111"/>
     <path d="
M24.3125 32
L35.375 32
C44.2031 32 48.8125 32.7031 52.7188 34.5938
C59.6875 38 63.6094 44.375 63.6094 52.25
C63.6094 59.8438 60.1719 65.625 53.7031 68.9062
C49.8906 70.9062 43.8125 72 37.0469 72
L2.75 72
L2.75 67.3125
L4.51562 67.3125
C12.4531 67.3125 13.3281 66.8125 13.3281 62.6094
L13.3281 59.7188
L13.3281 12.2812
L13.3281 9.375
C13.3281 5.1875 12.4531 4.6875 4.51562 4.6875
L2.75 4.6875
L2.75 0
L35.6719 0
L35.6719 4.6875
L33.125 4.6875
C25.1875 4.6875 24.3125 5.1875 24.3125 9.375
L24.3125 12.2656
z

M24.3125 36.7031
L24.3125 62.2188
C24.3125 66.8125 24.8906 67.3125 30.2812 67.3125
L36.5625 67.3125
C46.75 67.3125 51.5469 62.4219 51.5469 51.8594
C51.5469 41.5938 46.5469 36.7031 36.1562 36.7031
z
" id="Century_Schoolbook_L_Roman-80"/>
    </defs>
    <g transform="translate(335.300613269 73.3527702485)scale(0.12 -0.12)">
     <use transform="scale(0.996264009963)" xlink:href="#Century_Schoolbook_L_Roman-80"/>
     <use transform="translate(60.971308764 0.0)scale(0.996264009963)" xlink:href="#Century_Schoolbook_L_Roman-65"/>
     <use transform="translate(132.901293611 0.0)scale(0.996264009963)" xlink:href="#Century_Schoolbook_L_Roman-110"/>
     <use transform="translate(193.772924288 0.0)scale(0.996264009963)" xlink:href="#Century_Schoolbook_L_Roman-100"/>
     <use transform="translate(250.958411572 0.0)scale(0.996264009963)" xlink:href="#Century_Schoolbook_L_Roman-101"/>
     <use transform="translate(300.77161207 0.0)scale(0.996264009963)" xlink:href="#Century_Schoolbook_L_Roman-114"/>
     <use transform="translate(345.005180767 0.0)scale(0.996264009963)" xlink:href="#Century_Schoolbook_L_Roman-115"/>
     <use transform="translate(391.130991326 0.0)scale(0.996264009963)" xlink:href="#Century_Schoolbook_L_Roman-111"/>
     <use transform="translate(440.944191825 0.0)scale(0.996264009963)" xlink:href="#Century_Schoolbook_L_Roman-110"/>
    </g>
   </g>
   <g id="text_4">
    <!-- 19.7% -->
    <defs>
     <path d="
M5.78125 45.625
L10.0938 44.9375
L11.8594 52.8125
C13.3281 59.4062 14.0156 60.3906 16.8594 60.3906
C17.3438 60.3906 18.2344 60.3906 19.0156 60
C24.7031 60 31.75 60 35.7656 60
C37.1406 60 39.2031 60 41.8438 60
L35.1875 46.125
C27.8281 31.2656 27.0469 29.5781 24.5938 23.4844
C21.6562 16 20 9.70312 20 5.5
C20 1.01562 22.3438 -1.875 26.1719 -1.875
C30.875 -1.875 32.7344 1.40625 32.6406 10
C32.1406 24.2656 34 31.3594 44.3906 54.7031
C45.8594 57.9062 47.3281 61 48.8125 64.0938
C48.9062 64.2812 49.2031 65.1875 49.7812 66.4844
L49.7812 69.2812
C43.7031 69.2812 40.4688 69.2812 34.5 69.2812
C26.1719 69.2812 19.5 69.2812 8.82812 69.2812
z
" id="Century_Schoolbook_L_Roman-55"/>
    </defs>
    <g transform="translate(272.713590404 120.055878168)scale(0.12 -0.12)">
     <use transform="scale(0.996264009963)" xlink:href="#Century_Schoolbook_L_Roman-49"/>
     <use transform="translate(55.3916769633 0.0)scale(0.996264009963)" xlink:href="#Century_Schoolbook_L_Roman-57"/>
     <use transform="translate(110.783353927 0.0)scale(0.996264009963)" xlink:href="#Century_Schoolbook_L_Roman-46"/>
     <use transform="translate(138.47852353 0.0)scale(0.996264009963)" xlink:href="#Century_Schoolbook_L_Roman-55"/>
    </g>
   </g>
   <g id="text_5">
    <!-- KIto -->
    <defs>
     <path d="
M19.0156 47
L19.0156 66.7656
L15 66.7656
C14.0156 53.8594 9.70312 47 1.76562 47
L1.76562 42.8125
L9.79688 42.8125
L9.79688 17.5625
C9.79688 10.4062 10 7.85938 10.9844 5.5
C12.5469 1.29688 16.4688 -1 22.1562 -1
C25.9688 -1 29.2969 0.21875 31.5625 2.45312
C34.7969 5.70312 36.6562 11.0781 36.6562 16.6719
C36.6562 17.2656 36.6562 17.9844 36.5625 19
L32.4375 19
C32.1406 9.79688 29.5938 5.09375 24.7969 5.09375
C22.5469 5.09375 20.5781 6.32812 19.8906 8.0625
C19.3125 9.48438 19.0156 11.9844 19.0156 15.5781
L19.0156 42.8125
L33.4219 42.8125
L33.4219 47
z
" id="Century_Schoolbook_L_Roman-116"/>
     <path d="
M25.4844 59.7188
L25.4844 62.6094
C25.4844 66.8125 26.3594 67.3125 34.2031 67.3125
L36.1562 67.3125
L36.1562 72
L3.71875 72
L3.71875 67.3125
L5.6875 67.3125
C13.625 67.3125 14.5 66.8125 14.5 62.6094
L14.5 59.7188
L14.5 12.2812
L14.5 9.375
C14.5 5.1875 13.625 4.6875 5.6875 4.6875
L3.71875 4.6875
L3.71875 0
L36.1562 0
L36.1562 4.6875
L34.2031 4.6875
C26.3594 4.6875 25.4844 5.1875 25.4844 9.375
L25.4844 12.2812
z
" id="Century_Schoolbook_L_Roman-73"/>
     <path d="
M24.5 32.6094
L24.5 59.7188
L24.5 62.6094
C24.5 66.8125 25.3906 67.3125 33.3281 67.3125
L35.1875 67.3125
L35.1875 72
L2.9375 72
L2.9375 67.3125
L4.70312 67.3125
C12.6406 67.3125 13.5312 66.8125 13.5312 62.6094
L13.5312 59.7188
L13.5312 12.2812
L13.5312 9.375
C13.5312 5.1875 12.6406 4.6875 4.70312 4.6875
L2.9375 4.6875
L2.9375 0
L35.1875 0
L35.1875 4.6875
L33.3281 4.6875
C25.3906 4.6875 24.5 5.1875 24.5 9.375
L24.5 12.2812
L24.5 24.9375
L35.875 36.5938
L52.9219 11.1719
C54.4844 8.78125 54.875 7.98438 54.875 6.98438
C54.875 5.39062 53.0156 4.6875 48.2188 4.6875
L45.1719 4.6875
L45.1719 0
L78.6875 0
L78.6875 4.6875
L76.8281 4.6875
C71.4375 4.6875 70.0781 5.39062 67.2344 9.67188
L43.5156 44.4688
L58.1094 59.3281
C62.8125 64.4219 68.7969 67.3125 74.6719 67.3125
L74.6719 72
L44.5 72
L44.5 67.3125
L46.9375 67.3125
C51.4531 67.3125 53.3125 66.4062 53.3125 64.3125
C53.3125 62.9219 51.3594 60.0156 48.5156 57.1406
z
" id="Century_Schoolbook_L_Roman-75"/>
    </defs>
    <g transform="translate(167.833354739 27.1404983348)scale(0.12 -0.12)">
     <use transform="scale(0.996264009963)" xlink:href="#Century_Schoolbook_L_Roman-75"/>
     <use transform="translate(77.5083701014 0.0)scale(0.996264009963)" xlink:href="#Century_Schoolbook_L_Roman-73"/>
     <use transform="translate(118.055795406 0.0)scale(0.996264009963)" xlink:href="#Century_Schoolbook_L_Roman-116"/>
     <use transform="translate(156.8095016 0.0)scale(0.996264009963)" xlink:href="#Century_Schoolbook_L_Roman-111"/>
    </g>
   </g>
   <g id="text_6">
    <!-- 13.1% -->
    <defs>
     <path d="
M33.9062 37.3906
C35.2812 38 35.4844 38 36.1562 38.1719
C43.0156 40.6094 46.9375 46.3125 46.9375 53.5156
C46.9375 64.0781 39.1094 71 26.9531 71
C15.4844 71 6.76562 64.1094 6.76562 55.0312
C6.76562 50.9375 9.5 48.0469 13.2344 48.0469
C16.6562 48.0469 19.0156 50.4375 19.0156 54.0469
C19.0156 56.1406 18.2344 57.5312 15.9688 59.125
C15 59.8125 14.7031 60.3125 14.7031 60.9219
C14.7031 63.7188 20.4844 66.7031 25.9688 66.7031
C33.0312 66.7031 36.75 62.125 36.75 53.4688
C36.75 43.9844 33.0312 39 25.9688 39
C25.0938 39 23.5156 39 22.0469 39
C21.2656 39 20.4844 39 19.8906 39
C17.8438 39 16.7656 38.1406 16.7656 36.4531
C16.7656 34.8594 17.8438 34.1094 19.7969 34.1094
C20.0938 34.1094 20.875 34.1094 22.1562 34.1094
C25.875 34.1094 25.9688 34.1094 26.75 34.1094
C34 34.1094 37.9219 28.9062 37.9219 19.1875
C37.9219 9.09375 32.9219 3.29688 24.2031 3.29688
C18.0312 3.29688 11.375 6.6875 11.375 9.78125
C11.375 10.6875 11.5625 10.875 13.5312 11.9844
C16.2656 13.6719 17.3438 15.375 17.3438 17.8594
C17.3438 21.4531 14.7031 24.1562 11.0781 24.1562
C6.95312 24.1562 4.10938 20.5625 4.10938 15.375
C4.10938 5.6875 12.8438 -1 25.3906 -1
C39.5 -1 48.8125 7.01562 48.8125 19.3438
C48.8125 28.7656 44 34.4688 33.9062 37.3906" id="Century_Schoolbook_L_Roman-51"/>
    </defs>
    <g transform="translate(194.892194803 94.8491843974)scale(0.12 -0.12)">
     <use transform="scale(0.996264009963)" xlink:href="#Century_Schoolbook_L_Roman-49"/>
     <use transform="translate(55.3916769633 0.0)scale(0.996264009963)" xlink:href="#Century_Schoolbook_L_Roman-51"/>
     <use transform="translate(110.783353927 0.0)scale(0.996264009963)" xlink:href="#Century_Schoolbook_L_Roman-46"/>
     <use transform="translate(138.47852353 0.0)scale(0.996264009963)" xlink:href="#Century_Schoolbook_L_Roman-49"/>
    </g>
   </g>
   <g id="text_7">
    <!-- HvBrummelen -->
    <defs>
     <path d="
M57.2344 34.6094
L57.2344 12.2812
L57.2344 9.375
C57.2344 5.1875 56.3438 4.6875 48.4062 4.6875
L46.6562 4.6875
L46.6562 0
L78.7969 0
L78.7969 4.6875
L77.0312 4.6875
C69.0938 4.6875 68.2031 5.1875 68.2031 9.375
L68.2031 12.2812
L68.2031 59.7188
L68.2031 62.6094
C68.2031 66.8125 69.0938 67.3125 77.0312 67.3125
L78.7969 67.3125
L78.7969 72
L47.0469 72
L47.0469 67.3125
L48.4062 67.3125
C56.3438 67.3125 57.2344 66.8125 57.2344 62.625
L57.2344 59.7344
L57.2344 40
L24.4062 40
L24.4062 59.7344
L24.4062 62.625
C24.4062 66.8125 25.2812 67.3125 33.2188 67.3125
L35.0781 67.3125
L35.0781 72
L2.84375 72
L2.84375 67.3125
L4.60938 67.3125
C12.5469 67.3125 13.4219 66.8125 13.4219 62.6094
L13.4219 59.7188
L13.4219 12.2812
L13.4219 9.375
C13.4219 5.1875 12.5469 4.6875 4.60938 4.6875
L2.84375 4.6875
L2.84375 0
L35.0781 0
L35.0781 4.6875
L33.2188 4.6875
C25.2812 4.6875 24.4062 5.1875 24.4062 9.375
L24.4062 12.2812
L24.4062 34.6094
z
" id="Century_Schoolbook_L_Roman-72"/>
     <path d="
M40.375 0
L58.2188 0
L58.2188 4.70312
L55.7656 4.70312
C50.375 4.70312 49.5938 5.70312 49.5938 12.1562
L49.5938 46.7812
L31.1719 46.7812
L31.1719 42
L36.1562 42
C39.7812 42 40.375 41.2969 40.375 36.9531
L40.375 24.5625
C40.375 18.8125 39.7812 15.4844 38.3125 12.1562
C36.2656 7.71875 32.3438 5.09375 27.5312 5.09375
C24.5 5.09375 21.9531 6.20312 20.6719 8.21875
C19.4062 10.1406 19.2031 11.1406 19.2031 16.6875
L19.2031 46.7812
L2.0625 46.7812
L2.0625 42
L5.78125 42
C9.40625 42 10 41.2969 10 36.9531
L10 15.1719
C10 10.0312 10.3906 7.71875 11.8594 5.42188
C14.5 1.3125 19.2031 -1 25.0938 -1
C31.5625 -1 36.0625 1.59375 40.375 8.125
z
" id="Century_Schoolbook_L_Roman-117"/>
     <path d="
M20 73
L1.85938 73
L1.85938 68.2188
L6.67188 68.2188
C10.1875 68.2188 10.7812 67.5156 10.7812 63.2188
L10.7812 12.2812
L10.7812 8.28125
C10.7812 4.29688 9.70312 3.59375 3.4375 3.59375
L2.75 3.59375
L2.75 0
L28.125 0
L28.125 3.59375
L27.4375 3.59375
C21.0781 3.59375 20 4.29688 20 8.28125
L20 12.2812
z
" id="Century_Schoolbook_L_Roman-108"/>
     <path d="
M28.9062 12.4531
L17.7344 38.6562
C17.4375 39.25 17.25 40.125 17.25 40.7344
C17.25 42.3906 18.5156 43 22.5469 43
L23.9062 43
L23.9062 46.5938
L0.78125 46.5938
L0.78125 43
L1.5625 43
C5.29688 43 6.67188 42.1094 8.03125 38.75
L24.8906 -1
L28.3281 -1
L42.2344 33.7031
C44.8906 40.2344 47.625 43 51.3594 43
L51.75 43
L51.75 46.5938
L32.1406 46.5938
L32.1406 43
L33.5156 43
C36.9531 43 38.8125 41.8125 38.8125 39.5312
C38.8125 38.4531 38.4219 36.875 37.9219 35.3906
z
" id="Century_Schoolbook_L_Roman-118"/>
     <path d="
M19.7031 46
L2.25 46
L2.25 41.2188
L6.26562 41.2188
C9.90625 41.2188 10.4844 40.5156 10.4844 36.2031
L10.4844 12.2969
L10.4844 8.40625
C10.4844 4.29688 9.40625 3.59375 3.14062 3.59375
L2.75 3.59375
L2.75 0
L27.4375 0
L27.4375 3.59375
L27.0469 3.59375
C20.7812 3.59375 19.7031 4.29688 19.7031 8.39062
L19.7031 12.2812
L19.7031 26.4531
C19.7031 35.3281 24.5 41.9219 30.875 41.9219
C33.4219 41.9219 36.1562 40.625 37.3438 38.7188
C38.7188 36.8125 39.2969 33.9062 39.2969 29.7969
L39.2969 12.2969
L39.2969 8.29688
C39.2969 4.29688 38.2188 3.59375 31.8438 3.59375
L31.4531 3.59375
L31.4531 0
L56.25 0
L56.25 3.59375
L55.8594 3.59375
C49.5938 3.59375 48.5156 4.29688 48.5156 8.28125
L48.5156 12.2812
L48.5156 25.5469
C48.5156 35.5312 52.9219 41.9219 59.7812 41.9219
C63.0156 41.9219 65.6562 40.0156 66.9375 36.9219
C67.8125 34.7344 68.1094 32.5312 68.1094 28.6406
L68.1094 12.2812
L68.1094 8.28125
C68.1094 4.29688 67.0312 3.59375 60.6562 3.59375
L60.2656 3.59375
L60.2656 0
L85.0625 0
L85.0625 3.59375
L84.6719 3.59375
C78.4062 3.59375 77.3281 4.29688 77.3281 8.39062
L77.3281 12.2969
L77.3281 30.7188
C77.3281 36.9219 76.7344 39 74.1875 42.3594
C71.3438 46.0312 67.3281 48 62.625 48
C56.25 48 51.5469 44.9844 47.3281 38.1094
C45.6719 44.0625 40.375 48 33.8125 48
C27.9375 48 23.5156 45.1875 19.7031 38.9219
z
" id="Century_Schoolbook_L_Roman-109"/>
    </defs>
    <g transform="translate(48.46923957 55.6558220208)scale(0.12 -0.12)">
     <use transform="scale(0.996264009963)" xlink:href="#Century_Schoolbook_L_Roman-72"/>
     <use transform="translate(82.9884302275 0.0)scale(0.996264009963)" xlink:href="#Century_Schoolbook_L_Roman-118"/>
     <use transform="translate(136.487774119 0.0)scale(0.996264009963)" xlink:href="#Century_Schoolbook_L_Roman-66"/>
     <use transform="translate(208.417758965 0.0)scale(0.996264009963)" xlink:href="#Century_Schoolbook_L_Roman-114"/>
     <use transform="translate(252.651327663 0.0)scale(0.996264009963)" xlink:href="#Century_Schoolbook_L_Roman-117"/>
     <use transform="translate(313.52295834 0.0)scale(0.996264009963)" xlink:href="#Century_Schoolbook_L_Roman-109"/>
     <use transform="translate(402.089865032 0.0)scale(0.996264009963)" xlink:href="#Century_Schoolbook_L_Roman-109"/>
     <use transform="translate(490.656771725 0.0)scale(0.996264009963)" xlink:href="#Century_Schoolbook_L_Roman-101"/>
     <use transform="translate(540.469972223 0.0)scale(0.996264009963)" xlink:href="#Century_Schoolbook_L_Roman-108"/>
     <use transform="translate(571.851285219 0.0)scale(0.996264009963)" xlink:href="#Century_Schoolbook_L_Roman-101"/>
     <use transform="translate(621.664485718 0.0)scale(0.996264009963)" xlink:href="#Century_Schoolbook_L_Roman-110"/>
    </g>
   </g>
   <g id="text_8">
    <!-- 1.3% -->
    <g transform="translate(164.258675503 110.402997317)scale(0.12 -0.12)">
     <use transform="scale(0.996264009963)" xlink:href="#Century_Schoolbook_L_Roman-49"/>
     <use transform="translate(55.3916769633 0.0)scale(0.996264009963)" xlink:href="#Century_Schoolbook_L_Roman-46"/>
     <use transform="translate(83.0868465666 0.0)scale(0.996264009963)" xlink:href="#Century_Schoolbook_L_Roman-51"/>
    </g>
   </g>
   <g id="text_9">
    <!-- MGeers -->
    <defs>
     <path d="
M63.7031 72
L59.9844 72
L56.1562 65.8125
C49.7812 71.0781 45.4688 72.7031 38.3125 72.7031
C30.5781 72.7031 24.5 70.5156 18.3281 65.4375
C8.625 57.5 4.10938 47.4688 4.10938 34.0625
C4.10938 23.9219 7.0625 15.4844 12.7344 9.03125
C18.8125 2.07812 27.8281 -2 37.2344 -2
C45.4688 -2 51.25 0.59375 57.625 7.01562
L61.25 -2
L65.3594 -2
L65.3594 19.8281
C65.3594 25.1406 65.3594 25.25 65.9531 25.9375
C66.8438 26.9219 68.8906 27.3125 74.1875 27.3125
L75.6562 27.3125
L75.6562 32
L44.5 32
L44.5 27.3125
L46.3594 27.3125
C54.5938 27.3125 55.2656 26.8125 55.2656 21.4062
C55.2656 17.1719 54.4844 13.2344 53.3125 10.875
C50.8594 6.04688 44.5938 2.6875 38.2188 2.6875
C31.9531 2.6875 25.5781 5.96875 22.25 10.9375
C18.625 16.3906 17.0469 23.4375 17.0469 34.0625
C17.0469 56.1875 24.3125 68 37.9219 68
C49.0938 68 56.8438 59.8594 60.8594 43.9688
L65.0781 43.9688
z
" id="Century_Schoolbook_L_Roman-71"/>
     <path d="
M28.125 72
L2.84375 72
L2.84375 67.3125
L4.70312 67.3125
C12.6406 67.3125 13.5312 66.8125 13.5312 62.5938
L13.5312 59.7031
L13.5312 21.3906
C13.5312 7.78125 11.5625 4.89062 2.15625 4.89062
L2.15625 0
L30.0938 0
L30.0938 4.89062
C20.7812 4.89062 18.8125 7.78125 18.8125 21.4062
L18.8125 65.625
L42.1406 0
L46.0625 0
L67.9219 65.625
L67.9219 12.4531
L67.9219 9.5625
C67.9219 5.29688 67.0312 4.89062 59.0938 4.89062
L57.3281 4.89062
L57.3281 0
L89.4688 0
L89.4688 4.89062
L87.7188 4.89062
C79.7656 4.89062 78.8906 5.29688 78.8906 9.5625
L78.8906 12.4531
L78.8906 59.75
L78.8906 62.625
C78.8906 66.8125 79.7656 67.3125 87.7188 67.3125
L89.4688 67.3125
L89.4688 72
L64.875 72
L46.9375 18.8438
z
" id="Century_Schoolbook_L_Roman-77"/>
    </defs>
    <g transform="translate(45.177384973 246.782995889)scale(0.12 -0.12)">
     <use transform="scale(0.996264009963)" xlink:href="#Century_Schoolbook_L_Roman-77"/>
     <use transform="translate(94.0467691956 0.0)scale(0.996264009963)" xlink:href="#Century_Schoolbook_L_Roman-71"/>
     <use transform="translate(171.555139297 0.0)scale(0.996264009963)" xlink:href="#Century_Schoolbook_L_Roman-101"/>
     <use transform="translate(221.368339795 0.0)scale(0.996264009963)" xlink:href="#Century_Schoolbook_L_Roman-101"/>
     <use transform="translate(271.181540293 0.0)scale(0.996264009963)" xlink:href="#Century_Schoolbook_L_Roman-114"/>
     <use transform="translate(315.415108991 0.0)scale(0.996264009963)" xlink:href="#Century_Schoolbook_L_Roman-115"/>
    </g>
   </g>
   <g id="text_10">
    <!-- 43.1% -->
    <defs>
     <path d="
M36.0625 70.2656
L2.75 23
L2.75 17.4062
L30.2812 17.4062
L30.2812 12.25
L30.2812 9.35938
C30.2812 5.1875 29.4062 4.6875 21.4688 4.6875
L20.3906 4.6875
L20.3906 0
L49 0
L49 4.6875
L48.6094 4.6875
C40.6719 4.6875 39.7812 5.1875 39.7812 9.35938
L39.7812 12.25
L39.7812 17.4062
L51.6406 17.4062
L51.6406 23
L39.7812 23
L39.7812 50.2656
C39.7812 62.7656 39.7812 62.7656 40.2812 70.2656
z

M30.2812 23
L8.71875 23
L30.2812 53.2812
z
" id="Century_Schoolbook_L_Roman-52"/>
    </defs>
    <g transform="translate(138.129038746 214.654183063)scale(0.12 -0.12)">
     <use transform="scale(0.996264009963)" xlink:href="#Century_Schoolbook_L_Roman-52"/>
     <use transform="translate(55.3916769633 0.0)scale(0.996264009963)" xlink:href="#Century_Schoolbook_L_Roman-51"/>
     <use transform="translate(110.783353927 0.0)scale(0.996264009963)" xlink:href="#Century_Schoolbook_L_Roman-46"/>
     <use transform="translate(138.47852353 0.0)scale(0.996264009963)" xlink:href="#Century_Schoolbook_L_Roman-49"/>
    </g>
   </g>
   <g id="text_11">
    <!-- - -UNKNOWN -->
    <defs>
     <path d="
M34.2031 18.0156
L20.0938 62.8125
C19.7969 63.7188 19.5938 64.8125 19.5938 65.3125
C19.5938 66.8125 20.6719 67.3125 23.8125 67.3125
L28.2188 67.3125
L28.2188 72
L0.59375 72
L0.59375 67.3125
L2.45312 67.3125
C6.5625 67.3125 7.15625 66.9062 8.32812 63.4062
L29.5 -1.6875
L33.7188 -1.6875
L48.2188 48.0156
L64.0938 -1.6875
L68.1094 -1.6875
L85.3594 57.0156
C86.4375 60.9062 86.9219 62.1094 88 63.7188
C89.5781 66.1094 92.0156 67.3125 95.25 67.3125
L95.6562 67.3125
L95.6562 72
L71.6406 72
L71.6406 67.3125
L72.4219 67.3125
C78.1094 67.3125 80.8438 65.6094 80.8438 62.1094
C80.8438 61.125 80.6562 59.7188 80.2656 58.6094
L68.5 18.0156
L54.9844 61.8125
C54.3906 63.7188 54.2969 63.9062 54.2969 64.6094
C54.2969 65.5156 54.875 66.4062 55.7656 66.8125
C56.8438 67.2031 57.5312 67.3125 61.3438 67.3125
L62.9219 67.3125
L62.9219 72
L34.5938 72
L34.5938 67.3125
L36.8438 67.3125
C40.8594 67.3125 42.2344 66.6094 43.0156 64.2188
L45.5781 56.4062
z
" id="Century_Schoolbook_L_Roman-87"/>
     <path d="
M0 26.9219
L0 20.8125
L55.5938 20.8125
L55.5938 26.9219
z
" id="Century_Schoolbook_L_Roman-150"/>
     <path d="
M38.5156 74
C29.7969 74 22.3438 71.2031 16.3594 65.6094
C8.82812 58.5469 4.40625 47.7656 4.40625 36.4062
C4.40625 15.1562 19.0156 -1 38.125 -1
C57.3281 -1 71.8281 15.1562 71.8281 36.5
C71.8281 57.6406 57.3281 74 38.5156 74
M38.4219 69.2969
C44.9844 69.2969 50.4688 66.2031 54 60.7344
C57.625 54.8438 58.9062 48.6562 58.9062 36.5
C58.9062 24.3438 57.625 18.25 54 12.2656
C50.4688 6.6875 45.0781 3.6875 38.125 3.6875
C31.1719 3.6875 25.7812 6.6875 22.25 12.2656
C18.5156 18.3438 17.3438 24.3438 17.3438 36.7031
C17.3438 48.6562 18.625 54.75 22.25 60.7344
C25.875 66.5156 31.0625 69.2969 38.4219 69.2969" id="Century_Schoolbook_L_Roman-79"/>
     <path d="
M66.9375 50.3906
C66.9375 64.0312 68.8906 67.1094 78.2969 67.1094
L78.2969 72
L50.375 72
L50.375 67.1094
C59.6875 67.1094 61.6406 64.2188 61.6406 50.5156
L61.6406 28.4219
C61.6406 20.4219 61.1562 17.2344 59.2969 13.75
C56.1562 7.57812 49.7812 4 41.8438 4
C35.1875 4 29.4062 6.57812 26.1719 11.0469
C23.5156 14.7188 23.0312 17.0938 23.0312 26.3281
L23.0312 59.5625
L23.0312 62.4375
C23.0312 66.6094 23.9062 67.1094 31.8438 67.1094
L33.7188 67.1094
L33.7188 72
L1.67188 72
L1.67188 67.1094
L3.32812 67.1094
C11.1719 67.1094 12.0625 66.8125 12.0625 62.625
L12.0625 59.75
L12.0625 27
L12.0625 20.125
C12.3438 14.8438 13.1406 11.6719 15 8.875
C19.5 2.3125 28.125 -1.39062 39.2031 -1.39062
C50.2812 -1.39062 57.9219 2 62.625 9.07812
C65.7656 13.6562 66.9375 18.9375 66.9375 27.7969
z
" id="Century_Schoolbook_L_Roman-85"/>
     <path d="
M22.0469 72
L1.85938 72
L1.85938 67.3125
L4.3125 67.3125
C9.3125 67.3125 11.5625 66.5 13.3281 64.0156
L13.3281 21.5
C13.3281 7.78125 11.375 4.89062 1.96875 4.89062
L1.96875 0
L29.8906 0
L29.8906 4.89062
C20.5781 4.89062 18.625 7.79688 18.625 21.5
L18.625 58.6406
L62.3281 -1.45312
L66.4375 -1.45312
L66.4375 50.3594
C66.4375 64.0156 68.4062 67.3125 77.8125 67.3125
L77.8125 72
L49.8906 72
L49.8906 67.3125
C59.1875 67.3125 61.1562 64.4062 61.1562 50.625
L61.1562 19.0469
z
" id="Century_Schoolbook_L_Roman-78"/>
    </defs>
    <g transform="translate(276.420757492 318.5461277)scale(0.12 -0.12)">
     <use transform="scale(0.996264009963)" xlink:href="#Century_Schoolbook_L_Roman-150"/>
     <use transform="translate(55.3916769633 0.0)scale(0.996264009963)" xlink:href="#Century_Schoolbook_L_Roman-85"/>
     <use transform="translate(136.586190458 0.0)scale(0.996264009963)" xlink:href="#Century_Schoolbook_L_Roman-78"/>
     <use transform="translate(217.780703952 0.0)scale(0.996264009963)" xlink:href="#Century_Schoolbook_L_Roman-75"/>
     <use transform="translate(295.289074053 0.0)scale(0.996264009963)" xlink:href="#Century_Schoolbook_L_Roman-78"/>
     <use transform="translate(376.483587548 0.0)scale(0.996264009963)" xlink:href="#Century_Schoolbook_L_Roman-79"/>
     <use transform="translate(453.991957649 0.0)scale(0.996264009963)" xlink:href="#Century_Schoolbook_L_Roman-87"/>
     <use transform="translate(551.724870238 0.0)scale(0.996264009963)" xlink:href="#Century_Schoolbook_L_Roman-78"/>
    </g>
   </g>
   <g id="text_12">
    <!-- 2.9% -->
    <defs>
     <path d="
M49.4844 21.5625
L45.1719 21.5625
L44.2031 16.4688
C42.9219 10.0781 42.1406 9.375 36.0625 9.375
L14.1094 9.375
C20.875 16.5625 23.125 18.6562 29.4062 23.6562
C38.3125 30.6562 42.1406 34.1719 44.3906 37.1562
C47.5312 41.5469 49.0938 46.0469 49.0938 50.8281
C49.0938 62.1094 39.7812 70.2969 27.0469 70.2969
C14.6094 70.2969 5 62.1094 5 51.5312
C5 45.25 8.14062 40.9531 12.8438 40.9531
C16.4688 40.9531 18.9219 43.4531 18.9219 47.0469
C18.9219 49.5312 17.5469 51.8281 15.3906 52.7344
C11.7656 54.3281 11.5625 54.4219 11.5625 55.7188
C11.5625 57.2188 12.5469 59.5156 13.9219 61.2188
C16.3594 64.2031 20.4844 66 25.0938 66
C33.125 66 38.0312 60.9062 38.0312 52.5312
C38.0312 45.1406 34.5938 38.4531 26.4688 29.6562
L20.6719 23.4688
C17.25 19.7656 14.7031 16.9688 13.0312 15.0781
C9.5 10.875 7.75 8.57812 3.4375 2.79688
L3.4375 0
L47.625 0
z
" id="Century_Schoolbook_L_Roman-50"/>
    </defs>
    <g transform="translate(243.920802708 253.797709506)scale(0.12 -0.12)">
     <use transform="scale(0.996264009963)" xlink:href="#Century_Schoolbook_L_Roman-50"/>
     <use transform="translate(55.3916769633 0.0)scale(0.996264009963)" xlink:href="#Century_Schoolbook_L_Roman-46"/>
     <use transform="translate(83.0868465666 0.0)scale(0.996264009963)" xlink:href="#Century_Schoolbook_L_Roman-57"/>
    </g>
   </g>
   <g id="text_13">
    <!-- FvdVosse -->
    <defs>
     <path d="
M38.5156 15.3125
L20.5781 61.8125
C20.0938 63.0156 19.7969 64.2188 19.7969 64.8125
C19.7969 66.6094 21.4688 67.3125 25.875 67.3125
L29.7969 67.3125
L29.7969 72
L-0.78125 72
L-0.78125 67.3125
L1.17188 67.3125
C5.59375 67.3125 6.85938 66.3125 8.71875 61.7188
L33.5156 -1.6875
L37.4375 -1.6875
L59.9844 57.5156
C62.9219 65.3125 65.0781 67.3125 70.6562 67.3125
L71.6406 67.3125
L71.6406 72
L45.0781 72
L45.0781 67.3125
L46.9375 67.3125
C51.9375 67.3125 54.875 65.3125 54.875 62.0938
C54.875 60.7031 54.3906 58.4062 53.7031 56.5156
z
" id="Century_Schoolbook_L_Roman-86"/>
    </defs>
    <g transform="translate(337.539324246 276.349191348)scale(0.12 -0.12)">
     <use transform="scale(0.996264009963)" xlink:href="#Century_Schoolbook_L_Roman-70"/>
     <use transform="translate(66.4500311333 0.0)scale(0.996264009963)" xlink:href="#Century_Schoolbook_L_Roman-118"/>
     <use transform="translate(119.949375024 0.0)scale(0.996264009963)" xlink:href="#Century_Schoolbook_L_Roman-100"/>
     <use transform="translate(177.134862308 0.0)scale(0.996264009963)" xlink:href="#Century_Schoolbook_L_Roman-86"/>
     <use transform="translate(241.592882282 0.0)scale(0.996264009963)" xlink:href="#Century_Schoolbook_L_Roman-111"/>
     <use transform="translate(291.40608278 0.0)scale(0.996264009963)" xlink:href="#Century_Schoolbook_L_Roman-115"/>
     <use transform="translate(337.531893339 0.0)scale(0.996264009963)" xlink:href="#Century_Schoolbook_L_Roman-115"/>
     <use transform="translate(383.657703898 0.0)scale(0.996264009963)" xlink:href="#Century_Schoolbook_L_Roman-101"/>
    </g>
   </g>
   <g id="text_14">
    <!-- 12.9% -->
    <g transform="translate(273.934705482 230.781198768)scale(0.12 -0.12)">
     <use transform="scale(0.996264009963)" xlink:href="#Century_Schoolbook_L_Roman-49"/>
     <use transform="translate(55.3916769633 0.0)scale(0.996264009963)" xlink:href="#Century_Schoolbook_L_Roman-50"/>
     <use transform="translate(110.783353927 0.0)scale(0.996264009963)" xlink:href="#Century_Schoolbook_L_Roman-46"/>
     <use transform="translate(138.47852353 0.0)scale(0.996264009963)" xlink:href="#Century_Schoolbook_L_Roman-57"/>
    </g>
   </g>
   <g id="text_15">
    <!-- HMeijer -->
    <g transform="translate(373.369894006 200.025807335)scale(0.12 -0.12)">
     <use transform="scale(0.996264009963)" xlink:href="#Century_Schoolbook_L_Roman-72"/>
     <use transform="translate(82.9884302275 0.0)scale(0.996264009963)" xlink:href="#Century_Schoolbook_L_Roman-77"/>
     <use transform="translate(177.035199423 0.0)scale(0.996264009963)" xlink:href="#Century_Schoolbook_L_Roman-101"/>
     <use transform="translate(226.848399921 0.0)scale(0.996264009963)" xlink:href="#Century_Schoolbook_L_Roman-105"/>
     <use transform="translate(258.229712917 0.0)scale(0.996264009963)" xlink:href="#Century_Schoolbook_L_Roman-106"/>
     <use transform="translate(287.718692841 0.0)scale(0.996264009963)" xlink:href="#Century_Schoolbook_L_Roman-101"/>
     <use transform="translate(337.531893339 0.0)scale(0.996264009963)" xlink:href="#Century_Schoolbook_L_Roman-114"/>
    </g>
   </g>
   <g id="text_16">
    <!-- 5.0% -->
    <defs>
     <path d="
M16.0781 59.7031
C21.3594 58.4062 24.1094 58 27.9375 58
C36.2656 58 42.3438 61 45.5781 66.5
C46.6562 68.4062 47.0469 69.2969 47.0469 70.0938
C47.0469 70.7031 46.75 71 46.25 71
C45.9688 71 45.4688 70.9062 44.9844 70.5938
C40.1875 68.4844 37.5312 67.9844 31.9531 67.9844
C25.6719 67.9844 22.0469 68.4844 11.7656 71
C11.375 62.5938 10.4844 52.0156 9.10938 39.7656
C7.0625 37.5 6.375 36.1562 6.375 34.5156
C6.375 32.4375 7.64062 31 9.5 31
C11.9531 31 13.5312 33.1719 13.9219 37.2812
C17.3438 39.875 20.5781 41 24.5 41
C33.2188 41 38.5156 34.0312 38.5156 22.5
C38.5156 15.75 36.8438 9.96875 33.9062 6.82812
C31.9531 4.70312 27.9375 3.29688 23.9062 3.29688
C18.0312 3.29688 11.9531 6.42188 11.9531 9.5625
C11.9531 10.2656 12.5469 11.0781 13.7188 11.7812
C16.7656 13.7031 17.6406 15.0156 17.6406 17.7344
C17.6406 21.2812 15 24 11.4688 24
C7.54688 24 4.40625 20.2656 4.40625 15.5312
C4.40625 10.4688 7.25 5.42188 11.6562 2.29688
C15 0.09375 19.0156 -1 24.1094 -1
C39.5 -1 49.2031 8.28125 49.2031 23.1094
C49.2031 36.8281 40.2812 46 27.0469 46
C22.9375 46 19.7969 45.2969 14.4062 43
z
" id="Century_Schoolbook_L_Roman-53"/>
     <path d="
M27.8281 71
C14.1094 71 4.10938 55.6875 4.10938 34.75
C4.10938 14.125 13.8125 -1 27.0469 -1
C40.7656 -1 50.375 13.625 50.375 34.4375
C50.375 45.0625 48.2188 53.875 44.0938 60.7812
C40.2812 67.0938 34 71 27.8281 71
M27.1406 66.7031
C30.375 66.7031 33.5156 64.5 35.875 60.5
C38.5156 55.875 39.3906 49.9688 39.3906 36.25
C39.3906 22.2188 38.7188 15.625 36.75 11.2031
C34.5 6.29688 30.9688 3.29688 27.25 3.29688
C24.0156 3.29688 20.875 5.5 18.5156 9.5
C15.7812 14.2188 15 20.5312 15 36.8594
C15 48.4844 15.6875 54.375 17.6406 58.6875
C19.8906 63.7969 23.4219 66.7031 27.1406 66.7031" id="Century_Schoolbook_L_Roman-48"/>
    </defs>
    <g transform="translate(296.802149897 189.150262034)scale(0.12 -0.12)">
     <use transform="scale(0.996264009963)" xlink:href="#Century_Schoolbook_L_Roman-53"/>
     <use transform="translate(55.3916769633 0.0)scale(0.996264009963)" xlink:href="#Century_Schoolbook_L_Roman-46"/>
     <use transform="translate(83.0868465666 0.0)scale(0.996264009963)" xlink:href="#Century_Schoolbook_L_Roman-48"/>
    </g>
   </g>
  </g>
 </g>
 <defs>
  <clipPath id="p09c2192f7b">
   <rect height="345.6" width="446.4" x="0.0" y="-5.68434188608e-14"/>
  </clipPath>
 </defs>
</svg>
