<?xml version="1.0" encoding="UTF-8" standalone="no"?>
<!-- Created with Inkscape (http://www.inkscape.org/) -->

<svg
   xmlns:dc="http://purl.org/dc/elements/1.1/"
   xmlns:cc="http://creativecommons.org/ns#"
   xmlns:rdf="http://www.w3.org/1999/02/22-rdf-syntax-ns#"
   xmlns:svg="http://www.w3.org/2000/svg"
   xmlns="http://www.w3.org/2000/svg"
   xmlns:sodipodi="http://sodipodi.sourceforge.net/DTD/sodipodi-0.dtd"
   xmlns:inkscape="http://www.inkscape.org/namespaces/inkscape"
   width="108mm"
   height="108mm"
   viewBox="0 0 382.67717 382.67716"
   id="svg4238"
   version="1.1"
   inkscape:version="0.91 r13725"
   sodipodi:docname="MateFavicon.svg"
   inkscape:export-filename="/data/prog/src/matecluster/images/MateFavicon.png"
   inkscape:export-xdpi="27.68"
   inkscape:export-ydpi="27.68">
  <defs
     id="defs4240" />
  <sodipodi:namedview
     id="base"
     pagecolor="#ffffff"
     bordercolor="#666666"
     borderopacity="1.0"
     inkscape:pageopacity="0.0"
     inkscape:pageshadow="2"
     inkscape:zoom="0.7"
     inkscape:cx="84.285225"
     inkscape:cy="61.467235"
     inkscape:document-units="px"
     inkscape:current-layer="layer1"
     showgrid="false"
     fit-margin-top="0"
     fit-margin-left="0"
     fit-margin-right="0"
     fit-margin-bottom="0"
     inkscape:window-width="1920"
     inkscape:window-height="1016"
     inkscape:window-x="0"
     inkscape:window-y="27"
     inkscape:window-maximized="1" />
  <metadata
     id="metadata4243">
    <rdf:RDF>
      <cc:Work
         rdf:about="">
        <dc:format>image/svg+xml</dc:format>
        <dc:type
           rdf:resource="http://purl.org/dc/dcmitype/StillImage" />
        <dc:title></dc:title>
      </cc:Work>
    </rdf:RDF>
  </metadata>
  <g
     inkscape:label="Layer 1"
     inkscape:groupmode="layer"
     id="layer1"
     transform="translate(336.10155,-23.801626)">
    <g
       id="g4794"
       transform="translate(28.766514,-0.0791445)">
      <path
         inkscape:connector-curvature="0"
         id="path4226"
         d="m -232.84989,405.59841 c -35.01848,-3.93713 -70.35375,-18.97642 -97.48022,-41.48923 -7.68521,-6.37812 -7.69898,-7.87163 -0.0189,-2.04772 26.45071,20.05794 58.9519,33.89083 90.49147,38.51423 42.71486,6.26162 99.69595,-6.36221 135.79786,-30.08521 l 6.857351,-4.50605 -19.373471,-0.25296 -19.37348,-0.25295 0.59467,-10.49209 c 0.32707,-5.77065 0.85948,-18.48079 1.18314,-28.24476 l 0.58848,-17.75268 -5.26196,8.29263 c -11.02546,17.37566 -24.12726,30.3771 -40.50243,40.19221 -23.43785,14.04841 -58.44258,18.26291 -85.8119,10.33159 -26.92159,-7.80157 -44.93178,-27.07396 -52.24602,-55.90754 -2.88966,-11.39139 -2.99625,-19.94737 -0.40678,-32.65409 6.4453,-31.62764 26.02944,-55.2823 59.26751,-71.58613 28.26668,-13.86528 59.46228,-20.76847 100.20919,-22.17501 l 17.05192,-0.58861 -0.0138,-17.37241 c -0.01,-12.18578 -0.4351,-19.15964 -1.42489,-23.35872 -3.96136,-16.8056 -16.4858,-28.88399 -35.46819,-34.20502 -7.49246,-2.10024 -31.79032,-2.88788 -44.52343,-1.44327 -20.4408,2.31906 -43.53142,8.92921 -62.22319,17.81262 -9.30336,4.4215 -9.58652,4.49237 -10.01464,2.50668 -0.24232,-1.12391 -1.50759,-12.3447 -2.8117,-24.93509 -1.30412,-12.590387 -2.55606,-23.986599 -2.7821,-25.324917 -0.40483,-2.396935 -0.20057,-2.492547 13.66567,-6.396693 19.03444,-5.359293 38.71392,-9.693063 56.00808,-12.333972 12.49038,-1.907347 17.67712,-2.188974 39.60039,-2.1502 27.08799,0.0479 33.98474,0.8148 50.58221,5.624556 36.73671,10.645882 58.872151,36.701196 63.846031,75.152236 0.52582,4.06494 0.91859,42.75227 0.93532,92.12881 l 0.0289,85.12118 11.14991,1.1664 c 6.13245,0.64153 11.59206,0.89314 12.13247,0.55914 1.73957,-1.0751 8.73379,-13.75708 13.70621,-24.85213 8.79087,-19.61528 15.6922,-44.17629 18.21083,-64.81018 3.80591,-31.17994 -6.39188,-74.53613 -25.41605,-108.05696 -29.51417,-52.004355 -80.016621,-84.350076 -144.998631,-92.868475 -19.68472,-2.580439 -37.93312,-1.478343 -62.23367,3.758545 -5.9526,1.282815 -12.08429,2.540238 -13.62597,2.794274 -2.65717,0.437846 -2.68533,0.410451 -0.54107,-0.526362 8.1742,-3.571262 27.60404,-7.110435 46.32332,-8.437861 54.12914,-3.838417 107.96823,15.189182 147.076091,51.979043 32.30789,30.392956 57.93945,79.509106 62.60933,119.974366 1.35195,11.71489 -0.0127,37.30952 -2.69023,50.45498 -4.42184,21.70955 -15.65344,49.81819 -27.61274,69.10476 -32.9487,53.13581 -81.882091,83.65049 -143.804811,89.67615 -11.71803,1.14028 -36.96021,1.12046 -47.25606,-0.0371 l 0,-2e-5 z m 33.81568,-87.16939 c 13.01455,-3.30141 23.34135,-8.83408 31.85569,-17.06694 15.7243,-15.20448 24.11664,-36.13509 26.31186,-65.62211 l 0.58398,-7.8444 -18.48664,0.54157 c -55.06325,1.61313 -89.92039,17.9429 -97.93848,45.88192 -3.5886,12.50451 2.20619,29.52013 13.09076,38.43921 9.83354,8.05785 26.71027,10.20451 44.58283,5.67075 z"
         style="color:#000000;clip-rule:nonzero;display:inline;overflow:visible;visibility:visible;opacity:1;isolation:auto;mix-blend-mode:normal;color-interpolation:sRGB;color-interpolation-filters:linearRGB;solid-color:#000000;solid-opacity:1;fill:#939598;fill-opacity:1;fill-rule:nonzero;stroke:none;stroke-width:1.86870301;stroke-linecap:butt;stroke-linejoin:round;stroke-miterlimit:4;stroke-dasharray:none;stroke-dashoffset:0;stroke-opacity:1;color-rendering:auto;image-rendering:auto;shape-rendering:auto;text-rendering:auto;enable-background:accumulate" />
    </g>
  </g>
</svg>
