<?xml version="1.0" encoding="UTF-8" standalone="no"?>
<!-- Created with Inkscape (http://www.inkscape.org/) -->

<svg
   xmlns:dc="http://purl.org/dc/elements/1.1/"
   xmlns:cc="http://creativecommons.org/ns#"
   xmlns:rdf="http://www.w3.org/1999/02/22-rdf-syntax-ns#"
   xmlns:svg="http://www.w3.org/2000/svg"
   xmlns="http://www.w3.org/2000/svg"
   xmlns:sodipodi="http://sodipodi.sourceforge.net/DTD/sodipodi-0.dtd"
   xmlns:inkscape="http://www.inkscape.org/namespaces/inkscape"
   version="1.1"
   width="1143.6462"
   height="406.12115"
   id="svg2"
   xml:space="preserve"
   inkscape:version="0.91 r13725"
   sodipodi:docname="MateLogo.svg"
   inkscape:export-filename="/data/prog/src/matecluster/images/MateLogo.png"
   inkscape:export-xdpi="3.3297274"
   inkscape:export-ydpi="3.3297274"><sodipodi:namedview
     pagecolor="#ffffff"
     bordercolor="#666666"
     borderopacity="1"
     objecttolerance="10"
     gridtolerance="10"
     guidetolerance="10"
     inkscape:pageopacity="0"
     inkscape:pageshadow="2"
     inkscape:window-width="1920"
     inkscape:window-height="1016"
     id="namedview15"
     showgrid="false"
     inkscape:zoom="0.75678883"
     inkscape:cx="614.04514"
     inkscape:cy="59.120918"
     inkscape:window-x="0"
     inkscape:window-y="27"
     inkscape:window-maximized="1"
     inkscape:current-layer="svg2" /><metadata
     id="metadata8"><rdf:RDF><cc:Work
         rdf:about=""><dc:format>image/svg+xml</dc:format><dc:type
           rdf:resource="http://purl.org/dc/dcmitype/StillImage" /></cc:Work></rdf:RDF></metadata><defs
     id="defs6" /><path
     d="m 818.75,11.24989 54.4625,-11.25 -17.675,91.07 64.4625,-0.17625 -8.39375,41.9625 -64.2875,-0.175 -24.4625,131.25 c -7.5,41.78125 20,36.425 20,36.425 24.64375,0 35.7125,-3.56875 35.7125,-3.56875 L 875,340.35614 c -17.85625,4.825 -52.14375,5.71375 -52.14375,5.71375 -68.56875,0.8925 -55.35625,-64.82 -55.35625,-64.82 l 28.2125,-148.75 -47.85625,0 8.75,-41.60625 47.68125,0 14.4625,-79.64375 z"
     inkscape:connector-curvature="0"
     id="path20"
     style="fill:#0a74af;fill-opacity:1;fill-rule:nonzero;stroke:none" /><path
     d="m 0.215,94.99989 c 0,0 43.925,-5 95,-4.2875 l -2.715,50 c 0,0 21.225,-53.305 82.5,-54.6425 61.275,-1.33375 71.64,54.50125 71.64,54.50125 0,0 24.97125,-54.19375 85.50375,-54.50125 60.5325,-0.30375 72.14375,50.7175 72.14375,50.7175 l 1.425,204.2825 -54.28125,0 0,-175.71375 c 0,0 -1.7875,-34.64375 -34.2875,-34.28625 -60.7125,1.07375 -65.7125,81.43 -65.7125,81.43 l 0.35625,128.57 -54.64375,0 0,-170 c 0,0 1.7875,-42.8575 -35.7125,-40 -53.93125,1.78625 -63.575,73.93 -63.575,73.93 L 97.5,341.21614 l -54.64375,-0.14625 1.075,-208.21375 c 0,0 -30.71875,-5 -43.93125,-4.28625 l 0.215,-33.57 z"
     inkscape:connector-curvature="0"
     id="path26"
     style="fill:#0a74af;fill-opacity:1;fill-rule:nonzero;stroke:none" /><path
     d="m 397.85625,88.93114 c 0,0 10.35625,11.06875 9.2875,71.425 l -1.43125,180 c 0,0 -51.68375,-56.26 -52.14375,-126.1425 -0.45375,-69.8825 44.2875,-125.2825 44.2875,-125.2825 z"
     inkscape:connector-curvature="0"
     id="path28"
     style="fill:#939598;fill-opacity:1;fill-rule:nonzero;stroke:none" /><path
     style="color:#000000;clip-rule:nonzero;display:inline;overflow:visible;visibility:visible;opacity:1;isolation:auto;mix-blend-mode:normal;color-interpolation:sRGB;color-interpolation-filters:linearRGB;solid-color:#000000;solid-opacity:1;fill:#0a74af;fill-opacity:1;fill-rule:nonzero;stroke:none;stroke-width:1.86870301;stroke-linecap:butt;stroke-linejoin:round;stroke-miterlimit:4;stroke-dasharray:none;stroke-dashoffset:0;stroke-opacity:1;color-rendering:auto;image-rendering:auto;shape-rendering:auto;text-rendering:auto;enable-background:accumulate"
     d="m 996.87971,345.70579 c -14.05089,-1.35138 -28.01569,-5.68894 -37.41911,-11.62264 -10.62305,-6.7033 -20.59822,-19.02778 -25.58798,-31.61438 -4.2826,-10.80279 -5.39426,-18.18664 -5.29409,-35.16438 0.29486,-49.97891 14.59516,-98.04922 38.69377,-130.06878 6.79672,-9.03072 21.90984,-23.54482 30.10456,-28.91135 18.41664,-12.06059 38.19504,-18.957599 61.32944,-21.386415 18.1659,-1.90718 39.2108,1.432452 53.6281,8.510295 13.7662,6.75816 23.5329,17.82094 27.8594,31.55647 10.5694,33.55566 -5.6223,64.87268 -43.3133,83.77363 -24.6297,12.35109 -54.7374,19.14891 -97.14678,21.93416 -8.45122,0.55503 -15.46949,1.11279 -15.59617,1.23948 -0.95035,0.95035 -3.13283,30.20703 -2.62483,35.18656 1.83286,17.96612 9.61093,28.15948 25.16498,32.97931 17.8379,5.52755 71.2492,-1.38823 92.2724,-11.94756 l 4.4457,-2.23296 0,21.40767 0,21.40765 -8.6428,2.75784 c -18.2559,5.82532 -44.3122,10.30884 -71.2443,12.25905 -14.3848,1.04165 -15.1559,1.0398 -26.62899,-0.0636 l 0,-2e-5 z m 28.03059,-149.99591 c 33.1886,-4.15014 55.8127,-14.90489 63.2609,-30.0722 2.2384,-4.55811 2.6108,-6.45305 2.6108,-13.28347 0,-6.71015 -0.3765,-8.6986 -2.3869,-12.60512 -4.6188,-8.97524 -14.4258,-13.78493 -27.8524,-13.65979 -23.9027,0.22279 -45.7417,15.71382 -59.3799,42.11983 -3.87731,7.50716 -10.82355,26.14165 -10.82355,29.036 0,1.44736 16.62225,0.70918 34.57105,-1.53525 z"
     id="path4224"
     inkscape:connector-curvature="0" /><path
     style="color:#000000;clip-rule:nonzero;display:inline;overflow:visible;visibility:visible;opacity:1;isolation:auto;mix-blend-mode:normal;color-interpolation:sRGB;color-interpolation-filters:linearRGB;solid-color:#000000;solid-opacity:1;fill:#939598;fill-opacity:1;fill-rule:nonzero;stroke:none;stroke-width:1.86870301;stroke-linecap:butt;stroke-linejoin:round;stroke-miterlimit:4;stroke-dasharray:none;stroke-dashoffset:0;stroke-opacity:1;color-rendering:auto;image-rendering:auto;shape-rendering:auto;text-rendering:auto;enable-background:accumulate"
     d="m 526.9009,404.5581 c -35.01848,-3.93713 -70.35375,-18.97642 -97.48022,-41.48923 -7.68521,-6.37812 -7.69898,-7.87163 -0.0189,-2.04772 26.45071,20.05794 58.9519,33.89083 90.49147,38.51423 42.71486,6.26162 99.69595,-6.36221 135.79786,-30.08521 l 6.85735,-4.50605 -19.37347,-0.25296 -19.37348,-0.25295 0.59467,-10.49209 c 0.32707,-5.77065 0.85948,-18.48079 1.18314,-28.24476 l 0.58848,-17.75268 -5.26196,8.29263 c -11.02546,17.37566 -24.12726,30.3771 -40.50243,40.19221 -23.43785,14.04841 -58.44258,18.26291 -85.8119,10.33159 -26.92159,-7.80157 -44.93178,-27.07396 -52.24602,-55.90754 -2.88966,-11.39139 -2.99625,-19.94737 -0.40678,-32.65409 6.4453,-31.62764 26.02944,-55.2823 59.26751,-71.58613 28.26668,-13.86528 59.46228,-20.76847 100.20919,-22.17501 l 17.05192,-0.58861 -0.0138,-17.37241 c -0.01,-12.18578 -0.4351,-19.15964 -1.42489,-23.35872 -3.96136,-16.8056 -16.4858,-28.88399 -35.46819,-34.20502 -7.49246,-2.10024 -31.79032,-2.88788 -44.52343,-1.44327 -20.4408,2.31906 -43.53142,8.92921 -62.22319,17.81262 -9.30336,4.4215 -9.58652,4.49237 -10.01464,2.50668 -0.24232,-1.12391 -1.50759,-12.3447 -2.8117,-24.93509 -1.30412,-12.590384 -2.55606,-23.986596 -2.7821,-25.324914 -0.40483,-2.396935 -0.20057,-2.492547 13.66567,-6.396693 19.03444,-5.359293 38.71392,-9.693063 56.00808,-12.333972 12.49038,-1.907347 17.67712,-2.188974 39.60039,-2.1502 27.08799,0.0479 33.98474,0.8148 50.58221,5.624556 36.73671,10.645882 58.87215,36.701191 63.84603,75.152233 0.52582,4.06494 0.91859,42.75227 0.93532,92.12881 l 0.0289,85.12118 11.14991,1.1664 c 6.13245,0.64153 11.59206,0.89314 12.13247,0.55914 1.73957,-1.0751 8.73379,-13.75708 13.70621,-24.85213 8.79087,-19.61528 15.6922,-44.17629 18.21083,-64.81018 3.80591,-31.17994 -6.39188,-74.53613 -25.41605,-108.05696 -29.51417,-52.004352 -80.01662,-84.350073 -144.99863,-92.868472 -19.68472,-2.580439 -37.93312,-1.478343 -62.23367,3.758545 -5.9526,1.282815 -12.08429,2.540238 -13.62597,2.794274 -2.65717,0.437846 -2.68533,0.410451 -0.54107,-0.526362 8.1742,-3.571262 27.60404,-7.110435 46.32332,-8.437861 54.12914,-3.838417 107.96823,15.189182 147.07609,51.979043 32.30789,30.392953 57.93945,79.509103 62.60933,119.974363 1.35195,11.71489 -0.0127,37.30952 -2.69023,50.45498 -4.42184,21.70955 -15.65344,49.81819 -27.61274,69.10476 -32.9487,53.13581 -81.88209,83.65049 -143.80481,89.67615 -11.71803,1.14028 -36.96021,1.12046 -47.25606,-0.0371 l 0,-2e-5 z m 33.81568,-87.16939 c 13.01455,-3.30141 23.34135,-8.83408 31.85569,-17.06694 15.7243,-15.20448 24.11664,-36.13509 26.31186,-65.62211 l 0.58398,-7.8444 -18.48664,0.54157 c -55.06325,1.61313 -89.92039,17.9429 -97.93848,45.88192 -3.5886,12.50451 2.20619,29.52013 13.09076,38.43921 9.83354,8.05785 26.71027,10.20451 44.58283,5.67075 z"
     id="path4226"
     inkscape:connector-curvature="0" /></svg>